<?xml version="1.0" standalone="no"?>
<!DOCTYPE svg PUBLIC "-//W3C//DTD SVG 20010904//EN"
 "http://www.w3.org/TR/2001/REC-SVG-20010904/DTD/svg10.dtd">
<svg version="1.0" xmlns="http://www.w3.org/2000/svg"
 width="640.000000pt" height="256.000000pt" viewBox="0 0 640.000000 256.000000"
 preserveAspectRatio="xMidYMid meet">

<g transform="translate(0.000000,256.000000) scale(0.100000,-0.100000)"
fill="#000000" stroke="none">
<path d="M0 1280 l0 -1280 3200 0 3200 0 0 1280 0 1280 -3200 0 -3200 0 0
-1280z m1245 785 c7 -61 9 -65 32 -65 38 0 22 -25 -19 -28 l-35 -3 -6 53 c-10
83 -9 108 7 108 10 0 16 -19 21 -65z m-329 28 c11 -47 17 -49 35 -8 l18 40 17
-40 17 -40 10 38 c8 33 24 46 39 32 8 -9 -28 -139 -39 -142 -6 -2 -19 14 -30
36 l-20 40 -18 -39 c-10 -22 -21 -40 -25 -40 -4 0 -16 34 -27 75 -19 72 -19
75 -2 75 12 0 21 -10 25 -27z m262 10 c2 -9 -7 -13 -27 -13 -38 0 -41 -17 -4
-22 39 -4 42 -28 4 -28 -24 0 -31 -4 -31 -20 0 -15 7 -20 25 -20 16 0 25 -6
25 -16 0 -12 -9 -14 -42 -12 l-43 3 -3 59 c-2 32 -1 65 2 73 7 18 87 14 94 -4z
m262 2 c15 -18 3 -42 -13 -26 -17 17 -52 13 -72 -9 -15 -17 -16 -24 -6 -46 10
-22 16 -25 53 -23 47 4 65 -16 24 -27 -34 -8 -76 3 -93 24 -26 36 -11 101 27
115 29 10 68 7 80 -8z m168 -1 c27 -18 30 -78 6 -112 -21 -31 -85 -31 -114 0
-26 28 -26 82 0 108 24 24 77 26 108 4z m108 -31 l19 -48 34 47 c19 26 37 45
41 43 4 -3 11 -26 14 -52 4 -27 9 -56 12 -65 4 -14 0 -18 -18 -18 -21 0 -24 5
-23 36 l2 36 -33 -38 -32 -39 -15 35 -15 35 -1 -32 c-1 -27 -5 -33 -22 -33
-14 0 -19 5 -16 13 3 8 8 39 12 70 4 32 10 57 14 57 4 0 16 -21 27 -47z m252
30 c2 -9 -7 -13 -27 -13 -17 0 -31 -4 -31 -10 0 -5 11 -10 25 -10 16 0 25 -6
25 -15 0 -13 -17 -20 -41 -17 -4 1 -9 -8 -12 -18 -4 -17 0 -20 24 -20 19 0 29
-5 29 -15 0 -11 -12 -15 -45 -15 l-45 0 0 76 0 75 47 -3 c26 -2 48 -9 51 -15z
m212 2 c0 -8 -4 -15 -10 -15 -6 0 -10 -29 -10 -66 0 -57 -2 -65 -17 -62 -10 2
-17 10 -15 18 2 8 0 35 -3 61 -5 35 -10 46 -21 42 -9 -3 -14 2 -14 16 0 18 6
21 45 21 33 0 45 -4 45 -15z m160 -5 c12 -12 20 -33 20 -55 0 -45 -29 -75 -72
-75 -65 0 -101 73 -62 128 20 29 85 31 114 2z m1648 -87 c-47 -115 -98 -260
-92 -266 2 -2 -2 -20 -10 -39 -16 -37 -66 -231 -66 -254 0 -23 58 -17 65 6 3
11 24 42 46 70 46 59 64 62 174 30 89 -26 99 -26 85 -1 -5 11 -10 29 -10 40 0
11 -7 36 -16 55 -20 41 -14 70 23 114 25 29 39 35 95 41 3 1 4 10 1 21 -3 11
-1 20 4 20 11 0 10 -50 -1 -68 -3 -6 -13 -9 -21 -5 -8 3 -15 0 -15 -5 0 -6 9
-14 20 -17 11 -3 20 -12 20 -18 0 -6 7 -1 16 11 8 12 29 29 46 38 16 8 27 18
24 21 -13 14 27 43 50 37 19 -5 26 -1 34 20 16 44 4 58 -44 50 -22 -4 -50 -8
-62 -9 -11 -1 -25 -5 -32 -9 -7 -4 -12 -3 -12 3 0 5 -3 16 -6 25 -5 13 1 16
30 16 22 0 36 5 36 13 0 8 3 9 8 1 4 -6 24 -14 44 -17 31 -5 40 -2 48 14 10
17 22 19 126 19 124 0 156 -9 192 -55 11 -14 29 -25 41 -25 12 0 21 -4 21 -10
0 -5 -9 -10 -21 -10 -17 0 -20 -4 -15 -24 3 -13 -1 -42 -9 -65 -8 -23 -14 -62
-13 -87 0 -24 -2 -47 -5 -51 -13 -13 -37 8 -37 32 0 25 0 25 -31 9 -26 -13
-36 -14 -54 -4 -19 10 -26 9 -44 -9 -22 -22 -26 -23 -99 -23 -35 -1 -49 5 -76
31 -28 27 -35 30 -45 17 -9 -10 -9 -16 -1 -21 7 -4 10 -16 7 -26 -3 -10 0 -22
5 -26 7 -4 8 -1 4 8 -4 8 -1 6 7 -4 16 -20 77 -41 77 -27 0 5 -4 12 -10 15
-23 14 -8 22 26 15 20 -5 51 -6 69 -3 29 5 35 2 49 -25 20 -38 20 -63 1 -108
-14 -34 -14 -35 11 -44 49 -19 110 -12 143 16 17 14 31 31 31 37 0 7 -5 5 -10
-3 -5 -8 -10 -10 -10 -4 0 19 21 31 46 26 17 -3 24 -11 24 -28 0 -25 -15 -40
-25 -24 -3 5 -1 10 4 10 6 0 11 7 11 16 0 23 -24 11 -28 -13 -9 -62 -113 -86
-204 -48 -13 5 -20 1 -27 -18 -14 -37 -29 -41 -43 -12 -9 20 -9 36 0 71 9 35
9 49 0 64 -14 21 -28 26 -28 10 0 -5 -19 -19 -42 -31 -37 -19 -54 -21 -149
-17 -101 5 -106 4 -101 -14 7 -29 28 -35 147 -43 61 -4 103 -11 95 -14 -8 -3
-15 -13 -15 -21 0 -13 -54 -15 -417 -18 -341 -2 -418 -5 -418 -16 0 -19 -37
-50 -45 -37 -3 6 1 11 9 11 17 0 18 1 20 40 2 23 -1 25 -27 22 -33 -5 -45 -27
-28 -53 7 -12 7 -19 1 -19 -20 0 -34 48 -22 75 10 23 17 25 72 25 60 0 72 8
47 29 -19 15 -58 20 -87 10 -24 -9 -24 -8 -6 6 39 30 116 9 116 -32 0 -7 9
-13 19 -13 14 0 30 20 56 73 21 39 48 90 60 112 13 22 30 63 38 91 30 104 157
394 172 394 2 0 -14 -44 -37 -97z m411 11 c15 -9 33 -25 39 -35 11 -18 9 -19
-31 -19 -24 0 -49 -6 -56 -12 -10 -9 -12 -9 -7 -1 4 7 -1 11 -13 10 -11 0 -17
-5 -14 -11 4 -5 -1 -7 -10 -3 -10 3 -17 2 -17 -3 0 -6 -7 -10 -15 -10 -22 0
10 62 44 83 33 21 46 21 80 1z m-154 -42 c-5 -4 -10 -14 -10 -22 0 -12 -15
-16 -65 -17 -83 -3 -94 1 -80 27 9 17 21 20 88 20 42 0 73 -4 67 -8z m-197
-43 c-30 -22 -39 -71 -15 -86 6 -4 41 -9 77 -10 120 -5 117 -1 49 -67 -54 -52
-66 -58 -101 -58 -23 1 -48 8 -59 18 -28 25 -35 82 -15 117 9 16 16 39 16 52
0 25 33 55 60 55 10 -1 5 -8 -12 -21z m-2567 -51 l12 -43 18 40 18 40 17 -40
17 -40 10 38 c6 27 14 37 28 37 21 0 21 6 -5 -98 -6 -24 -16 -44 -21 -45 -5
-1 -19 15 -31 36 l-21 38 -18 -41 c-10 -22 -21 -40 -25 -40 -5 0 -40 132 -40
153 0 4 7 7 15 7 8 0 19 -17 26 -42z m292 14 c25 -22 23 -86 -5 -112 -64 -60
-160 22 -117 101 21 39 83 45 122 11z m221 -3 c3 -17 6 -46 6 -64 0 -26 4 -31
23 -31 34 1 28 -28 -7 -32 -16 -2 -32 0 -36 5 -4 4 -11 41 -15 81 -6 60 -5 72
8 72 8 0 17 -13 21 -31z m2076 16 c-6 -8 -9 -23 -5 -36 5 -15 3 -20 -6 -17
-29 10 -17 68 13 68 6 0 5 -6 -2 -15z m100 0 c-6 -8 -9 -23 -5 -35 3 -11 2
-20 -4 -20 -5 0 -13 9 -16 20 -7 21 9 50 27 50 6 0 5 -6 -2 -15z m-3130 -10
c0 -8 -4 -15 -10 -15 -6 0 -10 -27 -10 -60 0 -52 -3 -60 -19 -60 -13 0 -18 7
-18 28 0 77 -3 94 -18 88 -10 -4 -15 1 -15 14 0 17 7 20 45 20 33 0 45 -4 45
-15z m60 -15 c0 -25 4 -30 25 -30 21 0 25 5 25 30 0 20 5 30 15 30 11 0 15
-13 15 -52 0 -29 3 -63 6 -75 5 -17 2 -23 -9 -23 -16 0 -27 20 -27 51 0 14 -7
19 -25 19 -22 0 -25 -4 -25 -36 0 -24 -4 -34 -12 -32 -9 3 -14 30 -16 76 -2
60 0 72 13 72 10 0 15 -10 15 -30z m220 15 c0 -11 -11 -15 -36 -15 -21 0 -33
-4 -29 -10 3 -5 17 -10 31 -10 15 0 24 -6 24 -15 0 -9 -9 -15 -25 -15 -14 0
-25 -2 -25 -4 0 -2 -3 -11 -6 -20 -5 -13 1 -16 25 -16 21 0 31 -5 31 -16 0
-12 -9 -14 -42 -12 l-43 3 -3 73 -3 72 51 0 c38 0 50 -4 50 -15z m594 -1 c21
-21 20 -41 -3 -56 -19 -12 -19 -12 0 -39 23 -33 24 -39 4 -39 -8 0 -22 11 -31
25 -9 14 -20 25 -25 25 -5 0 -9 -11 -9 -25 0 -14 -4 -25 -10 -25 -6 0 -10 32
-10 75 l0 75 34 0 c19 0 42 -7 50 -16z m268 -15 c36 -49 -6 -109 -77 -109 -24
0 -25 2 -25 71 l0 70 42 -3 c30 -2 46 -10 60 -29z m2758 -9 c0 -5 -7 -10 -15
-10 -8 0 -15 5 -15 10 0 6 7 10 15 10 8 0 15 -4 15 -10z m400 0 c0 -6 -27 -10
-60 -10 -33 0 -60 4 -60 10 0 6 27 10 60 10 33 0 60 -4 60 -10z m90 0 c0 -5
-9 -10 -20 -10 -11 0 -20 5 -20 10 0 6 9 10 20 10 11 0 20 -4 20 -10z m-1050
-8 c0 -4 -9 -8 -20 -8 -11 0 -20 4 -20 8 0 4 9 8 20 8 11 0 20 -4 20 -8z
m-760 -32 c0 -5 -9 -10 -20 -10 -11 0 -20 5 -20 10 0 6 9 10 20 10 11 0 20 -4
20 -10z m125 0 c4 -6 -15 -10 -49 -10 -31 0 -56 5 -56 10 0 6 22 10 49 10 28
0 53 -4 56 -10z m615 -35 c0 -2 -13 -11 -30 -20 -32 -16 -34 -16 -24 9 5 14
54 24 54 11z m-1235 -79 c-21 -49 -11 -80 36 -110 45 -30 50 -56 20 -115 -26
-50 -18 -75 35 -106 51 -30 56 -52 24 -117 -30 -62 -26 -93 15 -129 40 -36 45
-68 19 -136 -17 -45 -14 -96 9 -127 11 -16 16 -4 35 87 22 102 96 305 131 357
9 14 23 38 31 53 8 16 16 24 18 19 2 -6 -8 -32 -21 -59 -46 -90 -86 -198 -111
-293 -27 -107 -42 -220 -29 -220 4 0 28 32 53 72 25 39 66 100 92 134 25 34
44 65 42 68 -2 3 -1 4 2 1 11 -7 36 24 28 36 -4 8 -3 9 4 5 15 -9 74 44 68 61
-3 7 -2 13 2 13 4 0 16 25 27 55 16 47 21 54 32 42 11 -10 11 -20 3 -41 -17
-45 -12 -47 40 -21 27 14 62 25 77 25 24 -1 22 -3 -18 -19 -71 -28 -129 -72
-218 -167 -114 -122 -236 -313 -214 -335 11 -11 139 -28 210 -29 l52 0 16 58
c17 58 105 255 112 249 2 -2 -13 -39 -33 -83 -44 -95 -86 -215 -78 -223 3 -3
145 -5 316 -5 252 1 312 4 319 15 6 10 9 11 9 2 0 -31 18 -8 34 43 10 31 20
54 22 51 2 -2 -3 -23 -11 -47 -20 -58 -20 -61 18 -56 17 3 84 8 147 11 185 10
368 33 394 50 13 9 40 15 59 13 40 -2 59 8 37 22 -20 12 -95 22 -225 29 -104
6 -110 7 -113 29 -3 21 0 22 55 22 l58 0 28 90 c32 104 75 206 83 197 4 -3 -7
-39 -24 -79 -29 -72 -62 -175 -62 -197 0 -8 26 -11 82 -9 l83 3 7 60 c8 60 56
231 63 223 2 -2 -4 -31 -14 -63 -28 -90 -36 -143 -11 -77 19 53 105 227 121
248 5 6 6 20 2 30 -7 18 -6 18 11 2 16 -17 16 -20 -7 -60 -14 -24 -23 -50 -20
-58 3 -12 2 -12 -5 -2 -6 9 -16 -3 -34 -45 -27 -60 -71 -187 -82 -235 l-6 -28
67 0 c38 -1 84 -3 103 -5 19 -2 75 -7 123 -10 75 -6 87 -9 82 -23 -3 -8 -11
-47 -18 -85 -9 -54 -16 -71 -32 -77 -28 -11 -290 -47 -470 -64 -252 -26 -467
-38 -775 -45 l-295 -6 -40 31 c-82 64 -112 69 -157 23 -28 -27 -30 -34 -25
-77 l6 -47 -16 35 c-8 19 -16 36 -18 38 -1 2 -58 7 -126 13 -181 14 -269 29
-269 46 0 8 -7 21 -15 29 -13 14 -15 13 -15 -5 0 -26 -21 -27 -44 -2 -17 18
-17 20 3 40 25 25 56 28 47 5 -3 -9 -2 -12 5 -8 6 3 8 15 6 26 -4 14 -1 18 11
16 9 -1 22 0 27 3 6 4 42 14 82 24 l72 17 -30 38 c-39 48 -48 109 -25 164 24
57 20 74 -24 122 -22 24 -40 49 -40 56 0 7 11 37 25 66 32 69 31 88 -2 109
-46 28 -73 56 -73 74 0 10 10 38 21 63 26 52 21 69 -25 97 -40 23 -51 47 -42
94 6 29 53 91 63 82 2 -2 -4 -20 -12 -41z m-1542 -29 c36 -42 0 -127 -54 -127
-78 0 -117 102 -55 146 28 20 85 10 109 -19z m127 13 c0 -15 -7 -20 -25 -20
-14 0 -25 -4 -25 -10 0 -5 12 -10 26 -10 31 0 28 -23 -4 -28 -17 -3 -22 -10
-22 -33 0 -19 -5 -29 -15 -29 -12 0 -15 14 -15 68 0 38 3 72 7 75 3 4 21 7 40
7 26 0 33 -4 33 -20z m2213 -110 c3 -11 1 -18 -4 -14 -5 3 -9 12 -9 20 0 20 7
17 13 -6z m132 0 c3 -5 1 -10 -4 -10 -6 0 -11 5 -11 10 0 6 2 10 4 10 3 0 8
-4 11 -10z m-2045 -236 c69 -95 97 -127 101 -115 4 9 7 65 8 125 1 60 4 113 7
118 3 4 14 8 25 8 17 0 19 -8 21 -82 2 -109 -3 -281 -9 -290 -10 -18 -43 -6
-64 25 -12 17 -57 78 -98 135 -89 120 -88 120 -90 -54 -1 -92 -4 -113 -17
-118 -9 -3 -19 -4 -24 -1 -7 5 -2 347 6 373 10 31 44 -1 134 -124z m-857 114
c9 -7 29 -44 45 -83 26 -65 31 -70 63 -75 43 -6 55 -40 14 -40 -23 0 -25 -3
-20 -22 6 -19 38 -92 53 -120 2 -4 -6 -12 -18 -18 -19 -10 -23 -6 -56 68 l-36
79 -71 -17 -71 -17 -15 -46 c-19 -55 -36 -76 -51 -61 -8 8 8 61 50 175 33 90
63 170 65 177 2 6 10 12 18 12 7 0 21 -6 30 -12z m342 -118 c22 -44 43 -79 47
-78 5 2 30 41 57 88 39 69 53 85 72 85 31 0 43 -37 64 -192 19 -149 19 -145
-7 -141 -21 3 -24 12 -39 113 -10 61 -18 117 -18 125 -2 22 -36 -21 -83 -108
-22 -40 -45 -71 -51 -69 -14 4 -17 11 -76 137 -58 122 -59 121 -69 -61 -6 -90
-10 -114 -24 -123 -13 -8 -21 -7 -29 1 -19 19 23 323 47 340 26 19 61 -19 109
-117z m-645 95 c0 -9 -9 -15 -22 -15 -38 0 -105 -40 -131 -78 -96 -139 -38
-245 100 -183 48 22 63 45 63 97 0 36 -1 36 -32 30 -105 -22 -142 -18 -105 11
15 12 140 33 196 33 46 0 54 -16 16 -30 -25 -9 -25 -11 -25 -119 0 -103 -1
-109 -22 -114 -32 -9 -38 -1 -38 49 l0 44 -56 -30 c-70 -37 -112 -38 -153 -4
-40 34 -48 78 -25 149 21 67 91 151 137 164 52 15 97 13 97 -4z m1600 1 c0 -8
-15 -16 -37 -20 -57 -9 -107 -48 -137 -108 -61 -122 -6 -202 108 -154 54 23
76 50 76 97 0 41 0 41 -32 35 -75 -15 -118 -18 -118 -9 0 20 26 31 97 42 126
19 190 11 129 -17 -26 -12 -36 -58 -36 -167 0 -48 -4 -64 -16 -69 -26 -10 -34
2 -34 50 l0 44 -56 -30 c-77 -41 -116 -40 -160 4 -39 39 -42 65 -19 143 19 63
64 122 117 151 46 25 118 30 118 8z m-625 -178 c0 -80 -3 -150 -7 -153 -4 -4
-14 -5 -23 -2 -12 5 -15 30 -15 150 0 79 3 147 7 151 4 4 14 5 23 4 13 -3 15
-26 15 -150z m2705 114 c0 -31 29 -81 30 -51 0 21 26 43 40 34 8 -5 6 -13 -6
-26 -11 -12 -14 -24 -9 -36 8 -17 8 -17 13 2 8 38 42 62 42 30 0 -8 -4 -15
-10 -15 -5 0 -10 -7 -10 -16 0 -17 32 -16 75 1 18 8 19 7 5 -10 -19 -23 -71
-45 -96 -40 -10 2 -31 6 -46 9 -15 4 -34 13 -42 22 -24 24 -20 124 5 124 5 0
9 -13 9 -28z m340 21 c0 -1 -8 -7 -18 -12 -12 -6 -25 -5 -41 4 -23 12 -22 12
17 11 23 0 42 -2 42 -3z m-1805 -77 c15 -15 22 -31 18 -44 -6 -24 29 -52 65
-52 19 0 23 -4 17 -17 -22 -54 -23 -74 -8 -102 10 -16 14 -35 9 -46 -6 -17 -8
-17 -22 3 -8 12 -26 22 -39 22 -44 0 -55 10 -55 49 0 47 -17 69 -55 73 -20 2
-34 11 -42 28 -9 17 -13 20 -13 8 0 -33 12 -48 46 -54 42 -8 52 -20 56 -69 3
-37 6 -40 44 -50 53 -13 71 -32 66 -67 -5 -36 -22 -36 -22 0 0 35 -16 52 -52
52 -32 0 -63 39 -55 69 7 29 -11 51 -43 51 -31 0 -60 30 -60 63 0 19 35 73 60
94 24 20 59 15 85 -11z m2130 -6 c-3 -5 -12 -10 -18 -10 -7 0 -6 4 3 10 19 12
23 12 15 0z m-1011 -22 c-4 -13 -22 -71 -38 -129 -21 -71 -35 -104 -43 -102
-17 6 -16 47 2 108 9 27 13 55 10 63 -2 7 0 10 5 7 6 -3 10 1 10 9 0 33 20 66
40 66 18 0 20 -4 14 -22z m1153 -30 c-3 -8 -6 -5 -6 6 -1 11 2 17 5 13 3 -3 4
-12 1 -19z m-912 -32 c13 -14 21 -26 19 -28 -2 -2 25 -2 59 0 60 4 63 3 95
-32 39 -43 43 -70 9 -64 -13 2 -29 -1 -35 -9 -10 -10 -10 -13 0 -13 8 0 9 -3
2 -10 -13 -13 -105 -40 -116 -34 -4 3 -8 21 -8 40 0 20 -8 42 -18 52 -11 11
-25 40 -33 65 -7 26 -20 48 -29 51 -8 2 -4 4 9 5 13 1 33 -10 46 -23z m-197
-91 c-3 -3 -9 2 -12 12 -6 14 -5 15 5 6 7 -7 10 -15 7 -18z m0 -40 c-3 -3 -9
2 -12 12 -6 14 -5 15 5 6 7 -7 10 -15 7 -18z m1245 -10 c-3 -9 -8 -14 -10 -11
-3 3 -2 9 2 15 9 16 15 13 8 -4z m-853 -9 c0 -3 -4 -8 -10 -11 -5 -3 -10 -1
-10 4 0 6 5 11 10 11 6 0 10 -2 10 -4z m-1404 -89 c-9 -31 -17 -42 -31 -42
-17 0 -20 6 -17 44 1 24 8 53 14 64 l11 21 18 -22 c15 -20 16 -28 5 -65z m515
60 c-13 -13 -26 -3 -16 12 3 6 11 8 17 5 6 -4 6 -10 -1 -17z m-151 -23 c0 -27
-20 -54 -40 -54 -25 0 -26 27 -3 52 20 22 43 24 43 2z m1058 -19 c3 -30 1 -31
-55 -42 -43 -8 -64 -8 -82 1 -29 13 -39 36 -17 36 9 0 16 -5 16 -11 0 -6 7 -3
16 5 8 9 24 16 35 16 10 0 19 5 19 11 0 5 4 8 9 4 5 -3 13 -1 16 5 13 21 40 5
43 -25z m-534 -1 c-1 -10 -5 -44 -9 -74 l-7 -56 41 4 c22 2 38 8 35 13 -3 5 2
9 11 9 9 0 13 5 10 10 -3 6 -1 10 4 10 15 0 14 -13 -1 -29 -11 -11 10 -12 116
-8 l128 4 -28 -23 c-16 -13 -33 -23 -39 -24 -5 0 -81 -1 -168 -3 -141 -2 -157
0 -157 15 0 9 4 18 9 20 5 2 12 34 16 73 3 38 9 73 12 78 9 14 28 1 27 -19z
m-2434 -24 c0 -6 -7 -27 -15 -47 -19 -45 -20 -43 15 -43 17 0 30 -3 30 -6 0
-6 -97 -144 -121 -172 -18 -22 -22 -6 -6 30 23 53 37 89 37 93 0 3 -11 5 -25
5 -14 0 -25 3 -25 8 0 13 35 116 43 130 10 15 67 16 67 2z m1513 -52 c12 -9
14 -17 7 -28 -6 -9 -10 -10 -10 -3 0 6 -9 15 -20 18 -22 7 -27 25 -7 25 7 0
21 -6 30 -12z m617 -12 c0 -19 -29 -48 -41 -41 -13 9 -11 21 7 39 19 20 34 20
34 2z m1643 -81 c-14 -114 -16 -120 -56 -129 -20 -5 -40 -6 -44 -3 -6 7 13
133 24 149 2 5 21 8 41 6 30 -2 37 -7 35 -23z m-1513 2 c0 -8 -9 -22 -20 -32
-19 -17 -20 -17 -26 0 -5 12 -1 23 11 31 24 18 35 18 35 1z m1638 -13 c25 -16
28 -36 8 -53 -22 -19 -121 -51 -124 -41 -2 5 2 34 8 64 l11 55 37 -6 c20 -3
47 -12 60 -19z m-2458 -58 c0 -3 -4 -8 -10 -11 -5 -3 -10 -1 -10 4 0 6 5 11
10 11 6 0 10 -2 10 -4z m1001 -33 c-12 -20 -14 -14 -5 12 4 9 9 14 11 11 3 -2
0 -13 -6 -23z m-2483 3 c-7 -8 -15 -12 -17 -11 -5 6 10 25 20 25 5 0 4 -6 -3
-14z m-191 -2 c-3 -3 -12 -4 -19 -1 -8 3 -5 6 6 6 11 1 17 -2 13 -5z m-80 -10
c-3 -3 -12 -4 -19 -1 -8 3 -5 6 6 6 11 1 17 -2 13 -5z m314 -17 c-10 -9 -11
-8 -5 6 3 10 9 15 12 12 3 -3 0 -11 -7 -18z m-587 -62 c-10 -8 -23 -15 -28
-15 -6 0 -1 7 10 15 10 8 23 15 28 15 6 0 1 -7 -10 -15z m173 -57 c-3 -7 -5
-2 -5 12 0 14 2 19 5 13 2 -7 2 -19 0 -25z m93 -2 c0 -19 5 -38 10 -41 6 -4
10 -3 9 2 -9 52 13 83 49 67 9 -4 21 -6 25 -5 5 1 6 -2 3 -7 -2 -4 -1 -14 5
-22 6 -11 9 -8 9 13 0 23 4 28 22 25 12 -2 23 -10 25 -18 4 -13 3 -13 -6 0 -8
12 -11 5 -11 -27 0 -50 -16 -64 -37 -32 l-16 22 -8 -21 c-10 -26 -29 -29 -30
-4 -1 15 -2 15 -6 0 -11 -41 -63 -26 -63 18 0 22 -2 23 -20 12 -11 -7 -20 -21
-20 -31 0 -10 -5 -17 -11 -15 -6 2 -10 7 -10 11 1 4 1 25 1 47 l0 40 40 0 c39
0 40 -1 40 -34z m220 -1 c0 -24 5 -35 15 -35 22 0 18 -18 -6 -25 -27 -9 -31
-4 -36 50 -3 35 0 45 12 45 11 0 15 -10 15 -35z m150 19 c0 -23 21 -27 27 -5
3 14 13 21 29 21 21 0 24 -5 26 -42 l1 -43 4 40 4 41 45 1 c37 1 45 -1 40 -13
-3 -9 -6 -31 -6 -50 0 -24 -5 -34 -15 -34 -8 0 -15 6 -15 14 0 7 -7 19 -15 26
-13 11 -15 8 -15 -13 0 -22 -4 -25 -27 -24 -24 2 -28 7 -28 35 0 29 -1 31 -12
15 -7 -9 -13 -22 -13 -29 0 -7 -5 -16 -10 -19 -13 -8 -41 20 -32 31 4 5 -5 -1
-20 -14 -36 -33 -70 -26 -83 16 -5 17 -14 32 -20 32 -5 0 1 6 15 14 32 17 120
17 120 0z m265 7 c3 -6 7 -27 9 -48 l3 -39 -41 0 c-23 -1 -44 4 -48 10 -12 17
-9 61 4 74 14 14 64 16 73 3z m3225 -40 c0 -19 -115 -51 -185 -51 l-50 1 37
19 c53 28 198 51 198 31z m-676 -7 c97 -14 30 -45 -132 -63 -166 -18 -327 -11
-319 13 12 36 312 69 451 50z m-1206 -19 c39 -7 42 -22 5 -32 -37 -10 -198
-10 -246 0 -56 12 -40 30 29 35 32 2 61 6 63 8 4 4 99 -3 149 -11z m-2303 -5
c3 -5 1 -10 -4 -10 -6 0 -11 5 -11 10 0 6 2 10 4 10 3 0 8 -4 11 -10z m2392 4
c-3 -3 -12 -4 -19 -1 -8 3 -5 6 6 6 11 1 17 -2 13 -5z m-2097 -14 c0 -5 -5
-10 -11 -10 -5 0 -7 5 -4 10 3 6 8 10 11 10 2 0 4 -4 4 -10z m-65 -20 c10 -11
16 -20 13 -20 -3 0 -13 9 -23 20 -10 11 -16 20 -13 20 3 0 13 -9 23 -20z m205
-5 c7 -9 8 -15 2 -15 -5 0 -12 7 -16 15 -3 8 -4 15 -2 15 2 0 9 -7 16 -15z
m-115 -6 c11 -16 1 -19 -13 -3 -7 8 -8 14 -3 14 5 0 13 -5 16 -11z m55 1 c0
-5 -2 -10 -4 -10 -3 0 -8 5 -11 10 -3 6 -1 10 4 10 6 0 11 -4 11 -10z m260 -4
c0 -3 -4 -8 -10 -11 -5 -3 -10 -1 -10 4 0 6 5 11 10 11 6 0 10 -2 10 -4z m138
-21 c-3 -3 -9 2 -12 12 -6 14 -5 15 5 6 7 -7 10 -15 7 -18z m1626 19 c31 -12
4 -24 -55 -24 -54 0 -77 11 -46 23 18 8 83 8 101 1z m1636 -4 c0 -5 -3 -10 -7
-10 -5 -1 -27 -5 -51 -9 -30 -6 -42 -5 -39 3 2 6 21 14 43 17 21 3 42 7 47 8
4 0 7 -3 7 -9z m-3287 -14 c4 -10 1 -13 -8 -9 -8 3 -12 9 -9 14 7 12 11 11 17
-5z m57 -1 c0 -8 -4 -15 -10 -15 -5 0 -7 7 -4 15 4 8 8 15 10 15 2 0 4 -7 4
-15z m-695 -23 c-3 -3 -11 0 -18 7 -9 10 -8 11 6 5 10 -3 15 -9 12 -12z m818
-19 c-7 -2 -19 -2 -25 0 -7 3 -2 5 12 5 14 0 19 -2 13 -5z m1732 -3 c-3 -5
-12 -10 -18 -10 -7 0 -6 4 3 10 19 12 23 12 15 0z m158 -17 c-7 -2 -19 -2 -25
0 -7 3 -2 5 12 5 14 0 19 -2 13 -5z"/>
<path d="M1513 2068 c-11 -24 -2 -61 17 -73 37 -23 98 46 70 80 -20 24 -75 19
-87 -7z"/>
<path d="M2239 2064 c-7 -20 -6 -32 6 -50 24 -37 61 -31 84 14 18 34 -1 62
-45 62 -28 0 -36 -5 -45 -26z"/>
<path d="M4548 1819 c-21 -12 -24 -49 -6 -67 17 -17 73 -15 88 3 35 43 -31 94
-82 64z m62 -34 c0 -8 0 -18 0 -22 0 -5 -10 -8 -21 -8 -22 0 -33 24 -22 51 7
18 43 0 43 -21z"/>
<path d="M4443 1756 c-26 -12 -29 -26 -11 -44 16 -16 25 -15 25 3 0 8 -4 12
-9 9 -14 -9 -9 9 9 28 18 20 17 20 -14 4z"/>
<path d="M4380 1633 c0 -6 8 -17 18 -24 16 -13 16 -13 2 6 -8 11 -16 22 -17
24 -2 2 -3 0 -3 -6z"/>
<path d="M3781 1511 c-23 -53 -26 -71 -13 -71 8 0 44 112 38 118 -2 1 -13 -20
-25 -47z"/>
<path d="M3926 1489 c-14 -17 -26 -35 -26 -40 0 -5 38 -9 85 -9 54 0 85 4 85
11 0 6 -13 24 -29 40 -40 40 -81 39 -115 -2z"/>
<path d="M4100 1460 c0 -5 5 -10 11 -10 5 0 7 5 4 10 -3 6 -8 10 -11 10 -2 0
-4 -4 -4 -10z"/>
<path d="M4410 1416 c0 -2 7 -7 16 -10 8 -3 12 -2 9 4 -6 10 -25 14 -25 6z"/>
<path d="M1677 1880 c-8 -12 -14 -29 -12 -38 2 -9 4 -20 4 -24 2 -14 38 -27
59 -22 11 3 26 19 33 36 14 34 2 52 -42 63 -21 5 -30 2 -42 -15z"/>
<path d="M1853 1878 c2 -7 12 -13 22 -13 10 0 20 6 23 13 2 7 -6 12 -23 12
-17 0 -25 -5 -22 -12z"/>
<path d="M2104 1845 c-1 -42 1 -45 20 -39 30 9 46 24 46 43 0 23 -20 41 -44
41 -18 0 -21 -7 -22 -45z"/>
<path d="M4986 793 c-4 -4 -31 -11 -59 -14 -45 -7 -42 -7 25 -6 46 2 82 7 90
15 9 9 6 12 -18 12 -17 0 -34 -3 -38 -7z"/>
<path d="M4810 710 c-12 -8 -11 -10 8 -10 12 0 22 5 22 10 0 13 -11 13 -30 0z"/>
<path d="M1480 1681 c-24 -45 -5 -81 42 -81 50 0 68 73 22 90 -37 15 -52 12
-64 -9z"/>
<path d="M1124 1403 c-3 -10 -15 -39 -26 -65 -12 -27 -18 -51 -15 -55 7 -7 85
16 92 28 6 9 -24 98 -36 105 -5 3 -12 -3 -15 -13z"/>
<path d="M4475 1179 c-4 -6 -5 -12 -2 -15 2 -3 7 2 10 11 7 17 1 20 -8 4z"/>
<path d="M1852 621 c-10 -6 -10 -10 3 -21 13 -11 15 -9 15 9 0 24 0 24 -18 12z"/>
<path d="M1626 603 c-4 -9 0 -23 7 -30 12 -12 17 -12 31 2 13 13 14 20 5 31
-16 19 -35 18 -43 -3z"/>
<path d="M1923 604 c-6 -17 20 -45 41 -43 6 0 5 3 -1 6 -16 6 -17 33 -2 33 5
0 7 5 4 10 -10 16 -35 12 -42 -6z"/>
</g>
</svg>
